<svg width="23" height="24" viewBox="0 0 23 24" fill="none" xmlns="http://www.w3.org/2000/svg">
<g clip-path="url(#clip0_22_74)">
<path fill-rule="evenodd" clip-rule="evenodd" d="M20.7 20.3365C20.7 20.9713 20.1848 21.4865 19.55 21.4865H3.45C2.8152 21.4865 2.3 20.9713 2.3 20.3365V8.8365C2.3 8.2017 2.8152 7.6865 3.45 7.6865H19.55C20.1848 7.6865 20.7 8.2017 20.7 8.8365V20.3365ZM20.7 3.0865V1.9365C20.7 1.3017 20.1848 0.786499 19.55 0.786499C18.9152 0.786499 18.4 1.3017 18.4 1.9365V3.0865H12.65V1.9365C12.65 1.3017 12.1348 0.786499 11.5 0.786499C10.8652 0.786499 10.35 1.3017 10.35 1.9365V3.0865H4.6V1.9365C4.6 1.3017 4.0848 0.786499 3.45 0.786499C2.8152 0.786499 2.3 1.3017 2.3 1.9365V3.0865C1.02925 3.0865 0 4.11575 0 5.3865V21.4865C0 22.7561 1.02925 23.7865 2.3 23.7865H20.7C21.9707 23.7865 23 22.7561 23 21.4865V5.3865C23 4.11575 21.9707 3.0865 20.7 3.0865Z" fill="white"/>
<path d="M9.30274 16.5726C6.183 13.4524 6.33228 11.0927 7.75951 10.0225L8.07572 9.78697C8.1564 9.72761 8.24818 9.68506 8.34562 9.66184C8.44306 9.63863 8.54416 9.63522 8.64294 9.65183C8.74172 9.66843 8.83616 9.70471 8.92065 9.7585C9.00514 9.8123 9.07796 9.88252 9.1348 9.965L9.93113 11.1108C10.0377 11.2642 10.0838 11.4515 10.0605 11.6368C10.0372 11.8221 9.94622 11.9922 9.80505 12.1144L9.03848 12.7771C8.84683 12.943 8.75303 13.1947 8.83927 13.4332C8.99863 13.877 9.38545 14.6602 10.3003 15.5746C11.2151 16.4894 11.9978 16.8762 12.4416 17.0361C12.6807 17.1218 12.9324 17.0285 13.0983 16.8364L13.761 16.0708C13.8832 15.9297 14.0533 15.8387 14.2386 15.8154C14.4239 15.7921 14.6112 15.8382 14.7646 15.9448L15.9124 16.7416C15.9948 16.7982 16.065 16.8709 16.1187 16.9552C16.1725 17.0395 16.2088 17.1337 16.2255 17.2323C16.2421 17.3309 16.2388 17.4318 16.2157 17.5291C16.1926 17.6264 16.1501 17.7181 16.0909 17.7986L15.8539 18.1179C14.7842 19.5441 12.4235 19.6929 9.30274 16.5726Z" fill="white"/>
</g>
<defs>
<clipPath id="clip0_22_74">
<rect width="23" height="23" fill="white" transform="translate(0 0.786499)"/>
</clipPath>
</defs>
</svg>
