<svg width="30" height="31" viewBox="0 0 30 31" fill="none" xmlns="http://www.w3.org/2000/svg">
<g clip-path="url(#clip0_28_108)">
<path d="M15 0.573242C6.71625 0.573242 0 7.28949 0 15.5732C0 23.857 6.71625 30.5732 15 30.5732C23.2837 30.5732 30 23.857 30 15.5732C30 7.28949 23.2837 0.573242 15 0.573242ZM9.37 7.32699C10.4225 7.32699 11.1238 8.02824 11.1238 8.96324C11.1238 9.89824 10.4225 10.5995 9.25375 10.5995C8.20125 10.6007 7.5 9.89824 7.5 8.96324C7.5 8.02824 8.20125 7.32699 9.37 7.32699ZM11.25 21.8232H7.5V11.8232H11.25V21.8232ZM23.75 21.8232H20.22V16.3582C20.22 14.847 19.2788 14.4982 18.9263 14.4982C18.5738 14.4982 17.3962 14.7307 17.3962 16.3582C17.3962 16.5907 17.3962 21.8232 17.3962 21.8232H13.75V11.8232H17.3975V13.2182C17.8675 12.4045 18.8087 11.8232 20.5737 11.8232C22.3387 11.8232 23.75 13.2182 23.75 16.3582V21.8232Z" fill="#F5F5F5"/>
</g>
<defs>
<clipPath id="clip0_28_108">
<rect width="30" height="30" fill="white" transform="translate(0 0.573242)"/>
</clipPath>
</defs>
</svg>
