<svg width="169" height="53" viewBox="0 0 169 53" fill="none" xmlns="http://www.w3.org/2000/svg">
<path d="M61.36 39.834L64.456 31.434H65.524L68.608 39.834H67.54L66.772 37.674H63.196L62.416 39.834H61.36ZM63.496 36.858H66.472L64.984 32.706L63.496 36.858Z" fill="#393939"/>
<path d="M75.4925 39.978C74.7805 39.978 74.1885 39.798 73.7165 39.438C73.2445 39.078 72.9685 38.59 72.8885 37.974H73.9205C73.9845 38.286 74.1485 38.558 74.4125 38.79C74.6845 39.014 75.0485 39.126 75.5045 39.126C75.9285 39.126 76.2405 39.038 76.4405 38.862C76.6405 38.678 76.7405 38.462 76.7405 38.214C76.7405 37.854 76.6085 37.614 76.3445 37.494C76.0885 37.374 75.7245 37.266 75.2525 37.17C74.9325 37.106 74.6125 37.014 74.2925 36.894C73.9725 36.774 73.7045 36.606 73.4885 36.39C73.2725 36.166 73.1645 35.874 73.1645 35.514C73.1645 34.994 73.3565 34.57 73.7405 34.242C74.1325 33.906 74.6605 33.738 75.3245 33.738C75.9565 33.738 76.4725 33.898 76.8725 34.218C77.2805 34.53 77.5165 34.978 77.5805 35.562H76.5845C76.5445 35.258 76.4125 35.022 76.1885 34.854C75.9725 34.678 75.6805 34.59 75.3125 34.59C74.9525 34.59 74.6725 34.666 74.4725 34.818C74.2805 34.97 74.1845 35.17 74.1845 35.418C74.1845 35.658 74.3085 35.846 74.5565 35.982C74.8125 36.118 75.1565 36.234 75.5885 36.33C75.9565 36.41 76.3045 36.51 76.6325 36.63C76.9685 36.742 77.2405 36.914 77.4485 37.146C77.6645 37.37 77.7725 37.698 77.7725 38.13C77.7805 38.666 77.5765 39.11 77.1605 39.462C76.7525 39.806 76.1965 39.978 75.4925 39.978Z" fill="#393939"/>
<path d="M79.9445 32.562C79.7445 32.562 79.5765 32.498 79.4405 32.37C79.3125 32.234 79.2485 32.066 79.2485 31.866C79.2485 31.674 79.3125 31.514 79.4405 31.386C79.5765 31.258 79.7445 31.194 79.9445 31.194C80.1365 31.194 80.3005 31.258 80.4365 31.386C80.5725 31.514 80.6405 31.674 80.6405 31.866C80.6405 32.066 80.5725 32.234 80.4365 32.37C80.3005 32.498 80.1365 32.562 79.9445 32.562ZM79.4405 39.834V33.882H80.4485V39.834H79.4405Z" fill="#393939"/>
<path d="M82.3236 39.834V33.882H83.2356L83.3076 34.746C83.4996 34.426 83.7556 34.178 84.0756 34.002C84.3956 33.826 84.7556 33.738 85.1556 33.738C85.6276 33.738 86.0316 33.834 86.3676 34.026C86.7116 34.218 86.9756 34.51 87.1596 34.902C87.3676 34.542 87.6516 34.258 88.0116 34.05C88.3796 33.842 88.7756 33.738 89.1996 33.738C89.9116 33.738 90.4796 33.954 90.9036 34.386C91.3276 34.81 91.5396 35.466 91.5396 36.354V39.834H90.5436V36.462C90.5436 35.846 90.4196 35.382 90.1716 35.07C89.9236 34.758 89.5676 34.602 89.1036 34.602C88.6236 34.602 88.2236 34.79 87.9036 35.166C87.5916 35.534 87.4356 36.062 87.4356 36.75V39.834H86.4276V36.462C86.4276 35.846 86.3036 35.382 86.0556 35.07C85.8076 34.758 85.4516 34.602 84.9876 34.602C84.5156 34.602 84.1196 34.79 83.7996 35.166C83.4876 35.534 83.3316 36.062 83.3316 36.75V39.834H82.3236Z" fill="#393939"/>
<path d="M93.178 42.474V33.882H94.09L94.186 34.866C94.378 34.578 94.65 34.318 95.002 34.086C95.362 33.854 95.818 33.738 96.37 33.738C96.962 33.738 97.478 33.874 97.918 34.146C98.358 34.418 98.698 34.79 98.938 35.262C99.186 35.734 99.31 36.27 99.31 36.87C99.31 37.47 99.186 38.006 98.938 38.478C98.698 38.942 98.354 39.31 97.906 39.582C97.466 39.846 96.95 39.978 96.358 39.978C95.87 39.978 95.434 39.878 95.05 39.678C94.674 39.478 94.386 39.198 94.186 38.838V42.474H93.178ZM96.25 39.102C96.65 39.102 97.002 39.01 97.306 38.826C97.61 38.634 97.85 38.37 98.026 38.034C98.202 37.698 98.29 37.306 98.29 36.858C98.29 36.41 98.202 36.018 98.026 35.682C97.85 35.346 97.61 35.086 97.306 34.902C97.002 34.71 96.65 34.614 96.25 34.614C95.85 34.614 95.498 34.71 95.194 34.902C94.89 35.086 94.65 35.346 94.474 35.682C94.298 36.018 94.21 36.41 94.21 36.858C94.21 37.306 94.298 37.698 94.474 38.034C94.65 38.37 94.89 38.634 95.194 38.826C95.498 39.01 95.85 39.102 96.25 39.102Z" fill="#393939"/>
<path d="M100.833 39.834V31.194H101.841V39.834H100.833Z" fill="#393939"/>
<path d="M106.289 39.978C105.721 39.978 105.217 39.85 104.777 39.594C104.337 39.33 103.989 38.966 103.733 38.502C103.485 38.038 103.361 37.49 103.361 36.858C103.361 36.234 103.485 35.69 103.733 35.226C103.981 34.754 104.325 34.39 104.765 34.134C105.213 33.87 105.729 33.738 106.313 33.738C106.889 33.738 107.385 33.87 107.801 34.134C108.225 34.39 108.549 34.73 108.773 35.154C108.997 35.578 109.109 36.034 109.109 36.522C109.109 36.61 109.105 36.698 109.097 36.786C109.097 36.874 109.097 36.974 109.097 37.086H104.357C104.381 37.542 104.485 37.922 104.669 38.226C104.861 38.522 105.097 38.746 105.377 38.898C105.665 39.05 105.969 39.126 106.289 39.126C106.705 39.126 107.053 39.03 107.333 38.838C107.613 38.646 107.817 38.386 107.945 38.058H108.941C108.781 38.61 108.473 39.07 108.017 39.438C107.569 39.798 106.993 39.978 106.289 39.978ZM106.289 34.59C105.809 34.59 105.381 34.738 105.005 35.034C104.637 35.322 104.425 35.746 104.369 36.306H108.113C108.089 35.77 107.905 35.35 107.561 35.046C107.217 34.742 106.793 34.59 106.289 34.59Z" fill="#393939"/>
<path d="M113.861 39.834V31.194H114.869V34.902C115.069 34.534 115.353 34.25 115.721 34.05C116.089 33.842 116.489 33.738 116.921 33.738C117.609 33.738 118.161 33.954 118.577 34.386C118.993 34.81 119.201 35.466 119.201 36.354V39.834H118.205V36.462C118.205 35.222 117.705 34.602 116.705 34.602C116.185 34.602 115.749 34.79 115.397 35.166C115.045 35.534 114.869 36.062 114.869 36.75V39.834H113.861Z" fill="#393939"/>
<path d="M121.46 32.562C121.26 32.562 121.092 32.498 120.956 32.37C120.828 32.234 120.764 32.066 120.764 31.866C120.764 31.674 120.828 31.514 120.956 31.386C121.092 31.258 121.26 31.194 121.46 31.194C121.652 31.194 121.816 31.258 121.952 31.386C122.088 31.514 122.156 31.674 122.156 31.866C122.156 32.066 122.088 32.234 121.952 32.37C121.816 32.498 121.652 32.562 121.46 32.562ZM120.956 39.834V33.882H121.964V39.834H120.956Z" fill="#393939"/>
<path d="M123.839 39.834V33.882H124.751L124.835 35.022C125.019 34.63 125.299 34.318 125.675 34.086C126.051 33.854 126.515 33.738 127.067 33.738V34.794H126.791C126.439 34.794 126.115 34.858 125.819 34.986C125.523 35.106 125.287 35.314 125.111 35.61C124.935 35.906 124.847 36.314 124.847 36.834V39.834H123.839Z" fill="#393939"/>
<path d="M128.931 32.562C128.731 32.562 128.563 32.498 128.427 32.37C128.299 32.234 128.235 32.066 128.235 31.866C128.235 31.674 128.299 31.514 128.427 31.386C128.563 31.258 128.731 31.194 128.931 31.194C129.123 31.194 129.287 31.258 129.423 31.386C129.559 31.514 129.627 31.674 129.627 31.866C129.627 32.066 129.559 32.234 129.423 32.37C129.287 32.498 129.123 32.562 128.931 32.562ZM128.427 39.834V33.882H129.435V39.834H128.427Z" fill="#393939"/>
<path d="M131.31 39.834V33.882H132.222L132.282 34.95C132.474 34.574 132.75 34.278 133.11 34.062C133.47 33.846 133.878 33.738 134.334 33.738C135.038 33.738 135.598 33.954 136.014 34.386C136.438 34.81 136.65 35.466 136.65 36.354V39.834H135.642V36.462C135.642 35.222 135.13 34.602 134.106 34.602C133.594 34.602 133.166 34.79 132.822 35.166C132.486 35.534 132.318 36.062 132.318 36.75V39.834H131.31Z" fill="#393939"/>
<path d="M140.649 37.962C140.313 37.962 140.005 37.918 139.725 37.83L139.125 38.394C139.213 38.458 139.321 38.514 139.449 38.562C139.585 38.602 139.777 38.642 140.025 38.682C140.273 38.714 140.621 38.75 141.069 38.79C141.869 38.846 142.441 39.03 142.785 39.342C143.129 39.654 143.301 40.062 143.301 40.566C143.301 40.91 143.205 41.238 143.013 41.55C142.829 41.862 142.541 42.118 142.149 42.318C141.765 42.518 141.269 42.618 140.661 42.618C140.125 42.618 139.649 42.546 139.233 42.402C138.817 42.266 138.493 42.054 138.261 41.766C138.029 41.486 137.913 41.13 137.913 40.698C137.913 40.474 137.973 40.23 138.093 39.966C138.213 39.71 138.437 39.466 138.765 39.234C138.589 39.162 138.437 39.086 138.309 39.006C138.189 38.918 138.077 38.822 137.973 38.718V38.442L138.993 37.434C138.521 37.034 138.285 36.506 138.285 35.85C138.285 35.458 138.377 35.102 138.561 34.782C138.745 34.462 139.013 34.21 139.365 34.026C139.717 33.834 140.145 33.738 140.649 33.738C140.993 33.738 141.305 33.786 141.585 33.882H143.781V34.638L142.665 34.686C142.897 35.022 143.013 35.41 143.013 35.85C143.013 36.242 142.917 36.598 142.725 36.918C142.541 37.238 142.273 37.494 141.921 37.686C141.577 37.87 141.153 37.962 140.649 37.962ZM140.649 37.134C141.073 37.134 141.409 37.026 141.657 36.81C141.913 36.586 142.041 36.266 142.041 35.85C142.041 35.442 141.913 35.13 141.657 34.914C141.409 34.69 141.073 34.578 140.649 34.578C140.217 34.578 139.873 34.69 139.617 34.914C139.369 35.13 139.245 35.442 139.245 35.85C139.245 36.266 139.369 36.586 139.617 36.81C139.873 37.026 140.217 37.134 140.649 37.134ZM138.897 40.602C138.897 41.002 139.065 41.298 139.401 41.49C139.737 41.69 140.157 41.79 140.661 41.79C141.157 41.79 141.553 41.682 141.849 41.466C142.153 41.25 142.305 40.962 142.305 40.602C142.305 40.346 142.201 40.122 141.993 39.93C141.785 39.746 141.401 39.638 140.841 39.606C140.401 39.574 140.021 39.534 139.701 39.486C139.373 39.662 139.157 39.85 139.053 40.05C138.949 40.258 138.897 40.442 138.897 40.602Z" fill="#393939"/>
<path d="M150.314 39.978C149.818 39.978 149.406 39.894 149.078 39.726C148.75 39.558 148.506 39.334 148.346 39.054C148.186 38.774 148.106 38.47 148.106 38.142C148.106 37.534 148.338 37.066 148.802 36.738C149.266 36.41 149.898 36.246 150.698 36.246H152.306V36.174C152.306 35.654 152.17 35.262 151.898 34.998C151.626 34.726 151.262 34.59 150.806 34.59C150.414 34.59 150.074 34.69 149.786 34.89C149.506 35.082 149.33 35.366 149.258 35.742H148.226C148.266 35.31 148.41 34.946 148.658 34.65C148.914 34.354 149.23 34.13 149.606 33.978C149.982 33.818 150.382 33.738 150.806 33.738C151.638 33.738 152.262 33.962 152.678 34.41C153.102 34.85 153.314 35.438 153.314 36.174V39.834H152.414L152.354 38.766C152.186 39.102 151.938 39.39 151.61 39.63C151.29 39.862 150.858 39.978 150.314 39.978ZM150.47 39.126C150.854 39.126 151.182 39.026 151.454 38.826C151.734 38.626 151.946 38.366 152.09 38.046C152.234 37.726 152.306 37.39 152.306 37.038V37.026H150.782C150.19 37.026 149.77 37.13 149.522 37.338C149.282 37.538 149.162 37.79 149.162 38.094C149.162 38.406 149.274 38.658 149.498 38.85C149.73 39.034 150.054 39.126 150.47 39.126Z" fill="#393939"/>
<path d="M154.946 42.474V33.882H155.858L155.954 34.866C156.146 34.578 156.418 34.318 156.77 34.086C157.13 33.854 157.586 33.738 158.138 33.738C158.73 33.738 159.246 33.874 159.686 34.146C160.126 34.418 160.466 34.79 160.706 35.262C160.954 35.734 161.078 36.27 161.078 36.87C161.078 37.47 160.954 38.006 160.706 38.478C160.466 38.942 160.122 39.31 159.674 39.582C159.234 39.846 158.718 39.978 158.126 39.978C157.638 39.978 157.202 39.878 156.818 39.678C156.442 39.478 156.154 39.198 155.954 38.838V42.474H154.946ZM158.018 39.102C158.418 39.102 158.77 39.01 159.074 38.826C159.378 38.634 159.618 38.37 159.794 38.034C159.97 37.698 160.058 37.306 160.058 36.858C160.058 36.41 159.97 36.018 159.794 35.682C159.618 35.346 159.378 35.086 159.074 34.902C158.77 34.71 158.418 34.614 158.018 34.614C157.618 34.614 157.266 34.71 156.962 34.902C156.658 35.086 156.418 35.346 156.242 35.682C156.066 36.018 155.978 36.41 155.978 36.858C155.978 37.306 156.066 37.698 156.242 38.034C156.418 38.37 156.658 38.634 156.962 38.826C157.266 39.01 157.618 39.102 158.018 39.102Z" fill="#393939"/>
<path d="M162.601 42.474V33.882H163.513L163.609 34.866C163.801 34.578 164.073 34.318 164.425 34.086C164.785 33.854 165.241 33.738 165.793 33.738C166.385 33.738 166.901 33.874 167.341 34.146C167.781 34.418 168.121 34.79 168.361 35.262C168.609 35.734 168.733 36.27 168.733 36.87C168.733 37.47 168.609 38.006 168.361 38.478C168.121 38.942 167.777 39.31 167.329 39.582C166.889 39.846 166.373 39.978 165.781 39.978C165.293 39.978 164.857 39.878 164.473 39.678C164.097 39.478 163.809 39.198 163.609 38.838V42.474H162.601ZM165.673 39.102C166.073 39.102 166.425 39.01 166.729 38.826C167.033 38.634 167.273 38.37 167.449 38.034C167.625 37.698 167.713 37.306 167.713 36.858C167.713 36.41 167.625 36.018 167.449 35.682C167.273 35.346 167.033 35.086 166.729 34.902C166.425 34.71 166.073 34.614 165.673 34.614C165.273 34.614 164.921 34.71 164.617 34.902C164.313 35.086 164.073 35.346 163.897 35.682C163.721 36.018 163.633 36.41 163.633 36.858C163.633 37.306 163.721 37.698 163.897 38.034C164.073 38.37 164.313 38.634 164.617 38.826C164.921 39.01 165.273 39.102 165.673 39.102Z" fill="#393939"/>
<path d="M71.6459 11.4112H59V15.189H63.1859V26.6092H67.4599V15.189H71.6459V11.4112Z" fill="#393939"/>
<path d="M81.2554 14.8851L80.8368 15.7969C79.8674 14.9936 78.6116 14.5377 77.2017 14.5377C73.5665 14.5377 70.9669 17.1213 70.9669 20.7471C70.9669 24.3946 73.5665 27 77.2017 27C78.5896 27 79.8234 26.5658 80.7927 25.7842L81.1452 26.6092H84.3177V14.8851H81.2554ZM77.7524 23.4393C76.2103 23.4393 75.0867 22.2886 75.0867 20.7471C75.0867 19.2273 76.2103 18.0983 77.7524 18.0983C79.2946 18.0983 80.4182 19.2273 80.4182 20.7471C80.4182 22.2886 79.2946 23.4393 77.7524 23.4393Z" fill="#393939"/>
<path d="M86.9258 13.4304H90.9795V10H86.9258V13.4304ZM86.9038 26.6092H91.0016V14.8851H86.9038V26.6092Z" fill="#393939"/>
<path d="M98.4643 23.0268L102.959 15.5581V14.8851H93.1327V18.4674H97.2966L92.7362 26.023V26.6092H103.003V23.0268H98.4643Z" fill="#393939"/>
<path d="M110.731 27C114.609 27 117.407 24.3729 117.407 20.7471C117.407 17.1213 114.609 14.516 110.731 14.516C106.854 14.516 104.078 17.1213 104.078 20.7471C104.078 24.3729 106.854 27 110.731 27ZM110.731 23.3742C109.255 23.3742 108.176 22.3103 108.176 20.7688C108.176 19.2056 109.255 18.1418 110.731 18.1418C112.23 18.1418 113.309 19.2273 113.309 20.7688C113.309 22.3103 112.23 23.3742 110.731 23.3742Z" fill="#393939"/>
<path d="M119.151 26.6092H123.138V22.8748H119.151V26.6092Z" fill="#393939"/>
<path d="M125.588 13.4304H129.642V10H125.588V13.4304ZM125.566 26.6092H129.664V14.8851H125.566V26.6092Z" fill="#393939"/>
<path d="M139.418 14.5594C137.875 14.5594 136.553 15.1239 135.672 16.1009L135.121 14.8851H132.235V26.6092H136.333V20.3563C136.333 18.8582 137.06 17.9898 138.338 17.9898C139.373 17.9898 139.902 18.6628 139.902 20.0307V26.6092H144V19.4662C144 16.4917 142.171 14.5594 139.418 14.5594Z" fill="#393939"/>
<path fill-rule="evenodd" clip-rule="evenodd" d="M0 12C0 5.3726 5.37258 0 12 0H40.3312C46.9586 0 52.3311 5.37258 52.3311 12V40.3316C52.3311 46.959 46.9586 52.3316 40.3311 52.3316H12C5.37257 52.3316 0 46.959 0 40.3316V12Z" fill="#169C50"/>
<path fill-rule="evenodd" clip-rule="evenodd" d="M40.7464 30.6375V21.2901C42.1726 20.9858 43.2615 19.831 43.4821 18.3897C43.7026 16.9483 43.0085 15.5208 41.7386 14.8042C40.4686 14.0874 38.8878 14.231 37.7679 15.1647L29.6264 10.4638C29.6386 10.3405 29.6459 10.2177 29.6459 10.0916C29.6459 8.15387 28.0751 6.583 26.1373 6.583C24.1997 6.583 22.6287 8.15386 22.6287 10.0916C22.6292 10.2402 22.6399 10.3887 22.6605 10.5359L14.5952 15.1929C13.4863 14.2447 11.9063 14.082 10.6275 14.7842C9.34875 15.4865 8.63824 16.9072 8.84332 18.3516C9.04865 19.796 10.1266 20.9626 11.5504 21.281V30.6466C10.1293 30.9636 9.05163 32.1257 8.84246 33.5666C8.63348 35.0075 9.33605 36.428 10.6085 37.1359C11.8807 37.844 13.4582 37.6924 14.5724 36.7551L22.8269 41.5218L22.8868 41.4166C23.244 43.017 23.9531 44.2915 24.8398 44.9311V45.569H25.5516V45.2884C25.7412 45.3478 25.9387 45.3784 26.1373 45.3791C26.4247 45.3772 26.7084 45.3153 26.9706 45.1977V45.57H27.6838V44.7307C28.5597 43.842 29.1487 42.7107 29.3744 41.4833L37.6827 36.6863C38.7816 37.6655 40.3752 37.8542 41.6725 37.1589C42.9699 36.4636 43.6951 35.0322 43.4882 33.5749C43.2814 32.1175 42.186 30.9444 40.7464 30.6375ZM39.9979 15.8208C41.146 15.8203 42.077 16.7506 42.0775 17.8987C42.0779 19.0468 41.1474 19.9778 39.9993 19.9781C38.8513 19.9784 37.9204 19.048 37.9202 17.8998C37.9202 16.7521 38.8502 15.8215 39.9979 15.8208ZM29.1328 11.9141L36.8435 16.3652C36.452 17.1896 36.4001 18.1348 36.6993 18.9969L31.4824 22.0554C30.4438 20.4708 28.7553 19.4291 26.8731 19.2118V13.5222C27.8142 13.3185 28.6306 12.7373 29.1307 11.9146L29.1328 11.9141ZM26.1209 8.0524C27.269 8.05188 28.2001 8.98215 28.2006 10.1303C28.2009 11.2783 27.2704 12.2094 26.1223 12.2097C24.9744 12.21 24.0435 11.2796 24.0432 10.1315C24.0432 8.98511 24.9718 8.05481 26.1187 8.05283L26.1209 8.0524ZM23.1801 11.9708C23.6774 12.7543 24.4652 13.3086 25.3708 13.5123V19.2173C23.4808 19.4458 21.7915 20.5056 20.7632 22.1075L15.6016 19.0927C15.9356 18.2196 15.9021 17.2485 15.5087 16.4006L23.1801 11.9708ZM10.2239 17.8994C10.223 16.751 11.1535 15.8194 12.302 15.819C13.4504 15.8184 14.3818 16.7491 14.382 17.8976C14.382 19.0465 13.451 19.9774 12.3024 19.9772C11.1545 19.9779 10.2233 19.0482 10.2219 17.9002L10.2239 17.8994ZM12.3029 36.1872C11.1544 36.1879 10.223 35.2571 10.2229 34.1086C10.2229 32.96 11.1542 32.0291 12.3027 32.0298C13.4511 32.0304 14.3814 32.9622 14.3801 34.1107C14.3793 35.2583 13.4487 36.188 12.301 36.188L12.3029 36.1872ZM13.0537 30.6366V21.2901C13.7084 21.1507 14.3093 20.8261 14.7846 20.3548L20.1058 23.4613C19.5199 25.1213 19.6525 26.9504 20.4717 28.5086L14.9464 31.7469C14.4497 31.184 13.7855 30.7952 13.0515 30.6375L13.0537 30.6366ZM29.63 39.6013C29.6392 39.4201 29.6449 39.2387 29.6449 39.0533C29.6449 36.0357 28.4725 33.515 26.9048 32.8844V27.5447C27.8702 27.199 28.4468 26.209 28.2716 25.1988C28.0961 24.1885 27.2193 23.4509 26.194 23.4509C25.1687 23.4509 24.2919 24.1885 24.1165 25.1988C23.941 26.209 24.5178 27.199 25.4831 27.5447V32.8413C23.8601 33.3953 22.6318 35.964 22.6318 39.0524C22.6318 39.2655 22.6396 39.4758 22.65 39.6831L15.496 35.5511C15.7149 35.0872 15.8288 34.5807 15.8292 34.0677C15.8288 33.7244 15.7781 33.383 15.6792 33.0544L21.3181 29.7498C22.2744 30.8499 23.5781 31.5899 25.013 31.8471V30.3569C22.5902 29.7895 20.9697 27.5062 21.2337 25.0319C21.4977 22.5577 23.5636 20.6677 26.0515 20.6242C28.5393 20.5808 30.6699 22.3976 31.0202 24.8611C31.3704 27.3246 29.8303 29.6632 27.4289 30.3147V31.8235C28.7876 31.5423 30.0177 30.8261 30.9329 29.7834L36.6413 33.1166C36.4199 33.8937 36.475 34.7234 36.7972 35.4645L29.63 39.6013ZM37.3497 31.7914L31.7889 28.5439C32.6333 26.9588 32.7651 25.0898 32.1517 23.4019L37.4799 20.2791C37.9572 20.7807 38.5726 21.1292 39.2481 21.2805V30.6461C38.5069 30.8113 37.8397 31.2136 37.3476 31.7918L37.3497 31.7914ZM39.9985 36.189C38.8501 36.1897 37.9188 35.2592 37.9183 34.111C37.9179 32.9628 38.8486 32.0317 39.9969 32.0316C41.1453 32.0316 42.076 32.9626 42.0757 34.1109C42.0747 35.2578 41.1448 36.1872 39.9979 36.188L39.9985 36.189Z" fill="white"/>
</svg>
