<svg width="28" height="28" viewBox="0 0 28 28" fill="none" xmlns="http://www.w3.org/2000/svg">
<path fill-rule="evenodd" clip-rule="evenodd" d="M22.8487 4.88951C12.4715 -5.18716 -3.80785 7.27847 3.24509 19.9137L1.47794 26.3656L8.08079 24.6343C20.7133 31.3133 32.8068 15.1271 22.8487 4.88951Z" fill="#F1F1F1"/>
<path fill-rule="evenodd" clip-rule="evenodd" d="M14.0386 24.2477C11.9885 24.255 9.99562 23.6394 8.2768 22.5481L4.28188 23.5954L5.34838 19.7017C4.15012 17.9259 3.47431 15.8431 3.48349 13.6875C3.46459 4.35923 14.9382 -0.39682 21.5049 6.23141C28.1242 12.8032 23.3695 24.2682 14.0386 24.2477Z" fill="#169C50"/>
<path fill-rule="evenodd" clip-rule="evenodd" d="M19.9653 16.0435C19.648 15.8847 18.088 15.1171 17.7972 15.0113C17.5064 14.9054 17.2947 14.8525 17.0833 15.1703C16.8716 15.4878 16.2641 16.2022 16.0789 16.4136C15.8939 16.6256 15.7087 16.6521 15.3915 16.4933C14.7059 16.5848 11.1892 13.6108 11.0747 12.7214C10.8898 12.4041 11.055 12.2322 11.214 12.0739C11.4902 11.7707 11.8399 11.3895 12.007 10.9891C12.1129 10.7771 12.0599 10.5919 11.9806 10.4331C11.9012 10.2744 11.2845 8.70515 11.0023 8.07794C10.7647 7.54955 10.5145 7.53902 10.2885 7.52957C9.75305 7.53794 9.3386 7.39889 8.83424 7.91918C6.94316 9.73925 7.8104 12.297 9.01919 13.847C9.17768 14.0587 11.2143 17.3646 14.4394 18.6363C17.1197 19.6933 17.6651 19.483 18.247 19.4301C18.8288 19.3772 20.1243 18.6627 20.3886 17.9219C20.653 17.181 20.653 16.5459 20.5738 16.4134C20.4942 16.2816 20.2825 16.2022 19.9653 16.0435Z" fill="#F1F1F1"/>
</svg>
