<svg width="28" height="27" viewBox="0 0 28 27" fill="none" xmlns="http://www.w3.org/2000/svg">
<path fill-rule="evenodd" clip-rule="evenodd" d="M22.8487 4.60301C12.4715 -5.47366 -3.80785 6.99197 3.24509 19.6272L1.47794 26.0791L8.08079 24.3478C20.7133 31.0268 32.8068 14.8406 22.8487 4.60301Z" fill="#F1F1F1"/>
<path fill-rule="evenodd" clip-rule="evenodd" d="M14.0386 23.9612C11.9885 23.9685 9.99562 23.3529 8.2768 22.2616L4.28188 23.3089L5.34838 19.4152C4.15012 17.6394 3.47431 15.5566 3.48349 13.401C3.46459 4.07273 14.9382 -0.683319 21.5049 5.94491C28.1242 12.5167 23.3695 23.9817 14.0386 23.9612Z" fill="#169C50"/>
<path fill-rule="evenodd" clip-rule="evenodd" d="M19.9653 15.757C19.648 15.5982 18.088 14.8306 17.7972 14.7248C17.5064 14.6189 17.2947 14.566 17.0833 14.8838C16.8716 15.2013 16.2641 15.9157 16.0789 16.1271C15.8939 16.3391 15.7087 16.3656 15.3915 16.2068C14.7059 16.2983 11.1892 13.3243 11.0747 12.4349C10.8898 12.1176 11.055 11.9457 11.214 11.7874C11.4902 11.4842 11.8399 11.103 12.007 10.7026C12.1129 10.4906 12.0599 10.3054 11.9806 10.1466C11.9012 9.98789 11.2845 8.41865 11.0023 7.79144C10.7647 7.26305 10.5145 7.25252 10.2885 7.24307C9.75305 7.25144 9.3386 7.11239 8.83424 7.63268C6.94316 9.45275 7.8104 12.0105 9.01919 13.5605C9.17768 13.7722 11.2143 17.0781 14.4394 18.3498C17.1197 19.4068 17.6651 19.1965 18.247 19.1436C18.8288 19.0907 20.1243 18.3762 20.3886 17.6354C20.653 16.8945 20.653 16.2594 20.5738 16.1269C20.4942 15.9951 20.2825 15.9157 19.9653 15.757Z" fill="#F1F1F1"/>
</svg>
